<svg xmlns="http://www.w3.org/2000/svg" xmlns:xlink="http://www.w3.org/1999/xlink" width="300" zoomAndPan="magnify" viewBox="0 0 224.87999 225" height="300" preserveAspectRatio="xMidYMid meet" version="1.0"><defs><clipPath id="773ff7e248"><path d="M 56.335938 50.785156 L 168.777344 50.785156 L 168.777344 174 L 56.335938 174 Z M 56.335938 50.785156 " clip-rule="nonzero"/></clipPath></defs><g clip-path="url(#773ff7e248)"><path fill="#3c1b7d" d="M 120.460938 170.042969 C 118.960938 169.308594 118.320312 167.488281 119.109375 165.992188 C 119.84375 164.542969 121.664062 163.902344 123.113281 164.6875 C 128.296875 167.242188 134.117188 168.101562 139.71875 167.167969 C 145.171875 166.335938 150.40625 163.804688 154.558594 159.578125 C 159.863281 154.347656 162.492188 147.367188 162.492188 140.417969 C 162.492188 133.414062 159.839844 126.460938 154.558594 121.207031 L 128.296875 94.917969 C 124.511719 97.867188 119.84375 99.757812 114.808594 100.101562 L 113.875 100.101562 L 113.726562 100.152344 L 112.449219 100.152344 L 112.304688 100.101562 L 111.46875 100.101562 L 111.320312 100.054688 L 110.878906 100.054688 L 110.730469 100.003906 C 105.644531 99.539062 100.976562 97.449219 97.242188 94.355469 L 70.292969 121.253906 C 64.988281 126.488281 62.359375 133.464844 62.359375 140.464844 C 62.359375 147.417969 65.011719 154.371094 70.292969 159.628906 C 75.527344 164.933594 82.554688 167.5625 89.503906 167.5625 C 96.210938 167.5625 102.945312 165.082031 108.152344 160.191406 L 90.019531 142.011719 L 89.875 141.867188 L 89.261719 141.25 C 85.894531 137.886719 84.175781 133.414062 84.175781 128.992188 C 84.175781 124.523438 85.894531 120.074219 89.261719 116.683594 C 92.625 113.320312 97.097656 111.601562 101.519531 111.601562 C 105.398438 111.601562 109.304688 112.902344 112.476562 115.433594 C 115.644531 112.878906 119.476562 111.601562 123.382812 111.601562 C 127.804688 111.601562 132.25 113.320312 135.640625 116.683594 C 139.007812 120.050781 140.726562 124.523438 140.726562 128.992188 C 140.726562 133.414062 139.007812 137.863281 135.640625 141.25 L 135.496094 141.398438 L 134.929688 142.011719 L 113.015625 163.925781 C 106.480469 170.363281 98.03125 173.582031 89.503906 173.582031 C 80.980469 173.582031 72.480469 170.363281 66.042969 163.925781 C 59.558594 157.441406 56.339844 148.917969 56.339844 140.464844 C 56.339844 131.941406 59.558594 123.441406 66.042969 116.957031 L 93.042969 89.957031 C 90.144531 85.855469 88.375 80.867188 88.375 75.460938 C 88.375 68.609375 91.125 62.441406 95.597656 57.972656 C 100.09375 53.5 106.285156 50.75 113.089844 50.75 C 119.894531 50.75 126.0625 53.5 130.53125 57.972656 C 135.050781 62.441406 137.804688 68.609375 137.804688 75.460938 C 137.804688 81.160156 135.839844 86.46875 132.570312 90.667969 L 158.882812 116.929688 C 165.316406 123.417969 168.535156 131.941406 168.535156 140.441406 C 168.535156 148.890625 165.316406 157.417969 158.882812 163.902344 C 153.746094 168.988281 147.359375 172.058594 140.703125 173.140625 C 133.847656 174.246094 126.75 173.214844 120.460938 170.042969 Z M 111.835938 94.109375 L 114.171875 94.109375 C 118.273438 93.839844 122.054688 92.242188 125.027344 89.734375 L 125.078125 89.6875 L 125.324219 89.441406 L 125.371094 89.441406 L 125.421875 89.390625 L 125.472656 89.292969 L 125.519531 89.292969 L 125.570312 89.246094 L 125.667969 89.144531 L 125.714844 89.097656 L 125.816406 89 L 125.863281 88.949219 L 126.0625 88.800781 L 126.109375 88.703125 L 126.160156 88.65625 C 129.523438 85.289062 131.613281 80.671875 131.613281 75.511719 C 131.613281 70.351562 129.476562 65.710938 126.109375 62.320312 C 122.746094 58.953125 118.050781 56.816406 112.917969 56.816406 C 107.78125 56.816406 103.117188 58.953125 99.726562 62.320312 C 96.359375 65.683594 94.222656 70.378906 94.222656 75.511719 C 94.222656 80.644531 96.359375 85.3125 99.726562 88.703125 C 102.96875 91.75 107.167969 93.789062 111.835938 94.109375 Z M 101.492188 117.667969 C 98.59375 117.667969 95.671875 118.75 93.511719 120.933594 C 91.324219 123.171875 90.191406 126.070312 90.191406 128.992188 C 90.191406 131.917969 91.324219 134.816406 93.511719 136.976562 L 94.125 137.589844 L 94.269531 137.738281 L 112.449219 155.917969 L 130.582031 137.738281 L 130.628906 137.738281 L 131.195312 137.125 L 131.34375 136.976562 C 133.578125 134.789062 134.660156 131.890625 134.660156 128.992188 C 134.660156 126.09375 133.578125 123.171875 131.34375 120.933594 C 129.15625 118.75 126.257812 117.667969 123.359375 117.667969 C 120.460938 117.667969 117.535156 118.75 115.300781 120.933594 L 114.5625 121.722656 L 114.515625 121.722656 C 113.382812 122.851562 111.445312 122.851562 110.3125 121.722656 L 109.699219 121.105469 L 109.550781 120.960938 C 107.316406 118.75 104.417969 117.667969 101.492188 117.667969 Z M 101.492188 117.667969 " fill-opacity="1" fill-rule="nonzero"/></g></svg>